<?xml version="1.0" standalone="no"?>
<!DOCTYPE svg PUBLIC "-//W3C//DTD SVG 20010904//EN"
 "http://www.w3.org/TR/2001/REC-SVG-20010904/DTD/svg10.dtd">
<svg version="1.0" xmlns="http://www.w3.org/2000/svg"
 width="512.000000pt" height="512.000000pt" viewBox="0 0 512.000000 512.000000"
 preserveAspectRatio="xMidYMid meet">
<metadata>
Created by potrace 1.14, written by Peter Selinger 2001-2017
</metadata>
<g transform="translate(0.000000,512.000000) scale(0.100000,-0.100000)"
fill="#000000" stroke="none">
<path d="M2378 5115 c-2 -1 -39 -5 -82 -9 -44 -4 -82 -8 -85 -10 -3 -2 -31 -7
-61 -11 -30 -3 -86 -13 -124 -22 -37 -8 -73 -16 -80 -17 -65 -13 -257 -76
-275 -90 -8 -6 -15 -10 -15 -8 -1 3 -20 -2 -53 -15 -10 -3 -20 -7 -23 -8 -21
-7 -70 -30 -160 -75 -58 -29 -115 -58 -127 -64 -13 -6 -23 -14 -23 -18 0 -5
-5 -8 -10 -8 -15 0 -232 -145 -276 -185 -7 -5 -26 -21 -44 -35 -100 -79 -250
-229 -349 -350 -30 -36 -57 -67 -60 -70 -3 -3 -26 -34 -51 -70 -24 -36 -48
-66 -52 -68 -4 -2 -8 -8 -8 -13 0 -5 -16 -33 -35 -63 -19 -30 -35 -59 -35 -65
0 -5 -4 -11 -8 -13 -15 -6 -118 -219 -165 -338 -56 -145 -106 -312 -120 -405
-3 -16 -10 -50 -15 -75 -22 -98 -48 -399 -34 -401 25 -4 842 -3 843 1 1 3 3
21 4 40 3 48 14 150 19 175 13 69 21 111 22 120 0 6 4 17 7 25 4 8 9 26 11 40
31 161 175 445 314 620 43 53 214 224 261 260 18 14 38 30 45 35 84 74 318
198 469 249 91 31 140 44 272 72 88 18 405 25 485 10 19 -3 49 -8 65 -10 66
-9 113 -19 195 -42 89 -26 221 -74 230 -84 3 -3 21 -12 40 -20 132 -53 349
-209 486 -348 l32 -33 -205 -204 c-199 -199 -204 -205 -171 -206 18 0 322 -1
676 -2 l642 -2 0 55 c1 64 1 1182 0 1253 l0 48 -170 -170 -170 -171 -68 68
c-38 37 -93 87 -122 112 -29 25 -58 50 -64 55 -17 17 -219 160 -236 168 -8 4
-35 20 -60 37 -46 30 -254 135 -325 165 -86 36 -328 115 -370 121 -11 2 -31 6
-45 9 -97 25 -318 58 -331 49 -5 -3 -9 -1 -9 3 0 7 -394 15 -402 8z"/>
<path d="M2193 3230 c-52 -21 -52 -19 -53 -678 0 -585 0 -610 19 -633 10 -13
29 -24 42 -24 25 0 300 134 319 156 3 3 25 15 50 28 25 12 59 30 75 40 17 10
55 31 85 48 30 16 73 40 95 53 48 27 93 52 200 110 44 24 82 46 85 49 3 3 32
20 65 36 33 17 62 32 65 35 5 5 41 25 108 61 45 24 65 56 51 82 -5 9 -40 33
-77 54 -37 20 -68 41 -70 45 -2 4 -11 8 -21 8 -9 0 -21 4 -26 9 -6 5 -68 42
-140 81 -225 125 -239 133 -275 154 -19 12 -53 30 -75 41 -22 11 -41 23 -43
28 -2 4 -8 7 -13 7 -6 0 -56 26 -112 58 -261 150 -308 170 -354 152z"/>
<path d="M4259 2518 c-5 -102 -8 -129 -14 -163 -4 -22 -7 -47 -7 -55 0 -27
-60 -265 -70 -277 -6 -7 -8 -13 -5 -13 18 0 -110 -264 -177 -364 -25 -38 -46
-70 -46 -72 0 -4 -20 -29 -106 -128 -142 -165 -333 -311 -524 -404 -90 -43
-240 -103 -240 -96 0 3 -8 0 -18 -5 -11 -6 -30 -12 -43 -15 -13 -3 -42 -10
-64 -16 -22 -6 -56 -13 -75 -15 -19 -3 -46 -8 -60 -10 -64 -13 -131 -17 -248
-18 -114 0 -154 3 -257 17 -147 21 -321 72 -417 123 -16 8 -28 12 -28 9 0 -8
-143 71 -225 122 -63 40 -106 73 -183 137 -40 33 -142 133 -142 139 0 3 90 95
200 205 110 110 200 201 200 203 0 3 -1327 3 -1341 -1 -7 -1 -8 -1341 -2
-1341 2 0 79 75 170 166 l165 166 41 -39 c22 -21 54 -52 71 -69 49 -48 193
-165 281 -227 44 -31 85 -61 92 -67 7 -5 15 -10 18 -10 3 0 24 -12 47 -26 52
-33 252 -133 333 -167 85 -35 298 -106 354 -117 48 -10 57 -12 133 -29 26 -6
66 -13 90 -16 24 -3 54 -7 68 -10 119 -24 537 -24 661 0 21 4 107 17 134 21
11 1 20 3 20 4 0 1 11 3 25 6 48 8 186 45 250 66 36 12 67 23 70 23 13 2 58
18 85 30 17 8 64 28 105 45 101 42 245 119 358 193 82 53 120 80 233 167 83
64 281 262 354 354 17 21 40 50 53 65 30 35 161 231 203 306 38 65 129 251
129 261 0 3 7 20 15 37 13 28 59 159 84 242 11 34 42 152 46 175 10 56 16 88
20 110 3 14 8 45 11 70 3 25 7 58 10 75 2 16 7 78 10 138 l6 107 -426 0 c-334
0 -426 -3 -427 -12z"/>
</g>
</svg>
